<?xml version="1.0" encoding="UTF-8" standalone="no"?>
<!DOCTYPE svg PUBLIC "-//W3C//DTD SVG 1.1//EN"
 "http://www.w3.org/Graphics/SVG/1.1/DTD/svg11.dtd">
<!-- Generated by graphviz version 2.26.3 (20100126.1600)
 -->
<!-- Title: models_diagram Pages: 1 -->
<svg width="750pt" height="678pt"
 viewBox="0.00 0.00 750.00 678.00" xmlns="http://www.w3.org/2000/svg" xmlns:xlink="http://www.w3.org/1999/xlink">
<g id="graph1" class="graph" transform="scale(1 1) rotate(0) translate(4 674)">
<title>models_diagram</title>
<polygon fill="white" stroke="white" points="-4,5 -4,-674 747,-674 747,5 -4,5"/>
<!-- _diagram_info -->
<g id="node1" class="node"><title>_diagram_info</title>
<text text-anchor="start" x="8" y="-653.8" font-family="Times Roman,serif" font-size="13.00">Models diagram</text>
<text text-anchor="start" x="8" y="-636.8" font-family="Times Roman,serif" font-size="13.00">Date: Mar 19 2012 &#45; 21:06</text>
<text text-anchor="start" x="8" y="-619.8" font-family="Times Roman,serif" font-size="13.00">Migration version: 20120319175908</text>
<text text-anchor="start" x="8" y="-602.8" font-family="Times Roman,serif" font-size="13.00">Generated by RailRoady 1.0.7</text>
<text text-anchor="start" x="8" y="-585.8" font-family="Times Roman,serif" font-size="13.00">http://railroady.prestonlee.com</text>
</g>
<!-- Map -->
<g id="node2" class="node"><title>Map</title>
<polyline fill="none" stroke="black" points="334.5,-253 475.5,-253 "/>
<path fill="none" stroke="black" d="M475.5,-253C481.5,-253 487.5,-259 487.5,-265"/>
<polyline fill="none" stroke="black" points="487.5,-265 487.5,-329 "/>
<path fill="none" stroke="black" d="M487.5,-329C487.5,-335 481.5,-341 475.5,-341"/>
<polyline fill="none" stroke="black" points="475.5,-341 334.5,-341 "/>
<path fill="none" stroke="black" d="M334.5,-341C328.5,-341 322.5,-335 322.5,-329"/>
<polyline fill="none" stroke="black" points="322.5,-329 322.5,-265 "/>
<path fill="none" stroke="black" d="M322.5,-265C322.5,-259 328.5,-253 334.5,-253"/>
<text text-anchor="middle" x="405" y="-324.4" font-family="Times Roman,serif" font-size="14.00">Map</text>
<polyline fill="none" stroke="black" points="322.5,-315 487.5,-315 "/>
<text text-anchor="start" x="330.5" y="-298.4" font-family="Times Roman,serif" font-size="14.00">name :string</text>
<text text-anchor="start" x="330.5" y="-280.4" font-family="Times Roman,serif" font-size="14.00">created_at :datetime</text>
<text text-anchor="start" x="330.5" y="-262.4" font-family="Times Roman,serif" font-size="14.00">updated_at :datetime</text>
</g>
<!-- Terraforming -->
<g id="node3" class="node"><title>Terraforming</title>
<polyline fill="none" stroke="black" points="224.5,-28 365.5,-28 "/>
<path fill="none" stroke="black" d="M365.5,-28C371.5,-28 377.5,-34 377.5,-40"/>
<polyline fill="none" stroke="black" points="377.5,-40 377.5,-122 "/>
<path fill="none" stroke="black" d="M377.5,-122C377.5,-128 371.5,-134 365.5,-134"/>
<polyline fill="none" stroke="black" points="365.5,-134 224.5,-134 "/>
<path fill="none" stroke="black" d="M224.5,-134C218.5,-134 212.5,-128 212.5,-122"/>
<polyline fill="none" stroke="black" points="212.5,-122 212.5,-40 "/>
<path fill="none" stroke="black" d="M212.5,-40C212.5,-34 218.5,-28 224.5,-28"/>
<text text-anchor="middle" x="295" y="-117.4" font-family="Times Roman,serif" font-size="14.00">Terraforming</text>
<polyline fill="none" stroke="black" points="212.5,-108 377.5,-108 "/>
<text text-anchor="start" x="220.5" y="-91.4" font-family="Times Roman,serif" font-size="14.00">posx :integer</text>
<text text-anchor="start" x="220.5" y="-73.4" font-family="Times Roman,serif" font-size="14.00">posy :integer</text>
<text text-anchor="start" x="220.5" y="-55.4" font-family="Times Roman,serif" font-size="14.00">created_at :datetime</text>
<text text-anchor="start" x="220.5" y="-37.4" font-family="Times Roman,serif" font-size="14.00">updated_at :datetime</text>
</g>
<!-- Map&#45;&gt;Terraforming -->
<g id="edge4" class="edge"><title>Map&#45;&gt;Terraforming</title>
<path fill="none" stroke="#eec147" d="M378.692,-245.34C363.081,-214.687 343.188,-175.623 326.713,-143.273"/>
<ellipse fill="none" stroke="#eec147" cx="380.659" cy="-249.204" rx="4.00002" ry="4.00002"/>
<polygon fill="#eec147" stroke="#eec147" points="326.702,-143.25 326.173,-132.297 324.432,-138.795 322.163,-134.339 322.163,-134.339 322.163,-134.339 324.432,-138.795 318.153,-136.381 326.702,-143.25 326.702,-143.25"/>
</g>
<!-- Player -->
<g id="node7" class="node"><title>Player</title>
<polyline fill="none" stroke="black" points="406.5,-10 547.5,-10 "/>
<path fill="none" stroke="black" d="M547.5,-10C553.5,-10 559.5,-16 559.5,-22"/>
<polyline fill="none" stroke="black" points="559.5,-22 559.5,-140 "/>
<path fill="none" stroke="black" d="M559.5,-140C559.5,-146 553.5,-152 547.5,-152"/>
<polyline fill="none" stroke="black" points="547.5,-152 406.5,-152 "/>
<path fill="none" stroke="black" d="M406.5,-152C400.5,-152 394.5,-146 394.5,-140"/>
<polyline fill="none" stroke="black" points="394.5,-140 394.5,-22 "/>
<path fill="none" stroke="black" d="M394.5,-22C394.5,-16 400.5,-10 406.5,-10"/>
<text text-anchor="middle" x="477" y="-135.4" font-family="Times Roman,serif" font-size="14.00">Player</text>
<polyline fill="none" stroke="black" points="394.5,-126 559.5,-126 "/>
<text text-anchor="start" x="402.5" y="-109.4" font-family="Times Roman,serif" font-size="14.00">name :string</text>
<text text-anchor="start" x="402.5" y="-91.4" font-family="Times Roman,serif" font-size="14.00">posx :integer</text>
<text text-anchor="start" x="402.5" y="-73.4" font-family="Times Roman,serif" font-size="14.00">posy :integer</text>
<text text-anchor="start" x="402.5" y="-55.4" font-family="Times Roman,serif" font-size="14.00">visual_acuity :integer</text>
<text text-anchor="start" x="402.5" y="-37.4" font-family="Times Roman,serif" font-size="14.00">created_at :datetime</text>
<text text-anchor="start" x="402.5" y="-19.4" font-family="Times Roman,serif" font-size="14.00">updated_at :datetime</text>
</g>
<!-- Map&#45;&gt;Player -->
<g id="edge2" class="edge"><title>Map&#45;&gt;Player</title>
<path fill="none" stroke="#5eea2c" d="M422.293,-245.121C430.579,-220.263 440.696,-189.911 449.966,-162.101"/>
<ellipse fill="none" stroke="#5eea2c" cx="421.009" cy="-248.973" rx="4.00001" ry="4.00001"/>
<polygon fill="#5eea2c" stroke="#5eea2c" points="450.043,-161.87 457.475,-153.807 451.624,-157.127 453.205,-152.384 453.205,-152.384 453.205,-152.384 451.624,-157.127 448.936,-150.961 450.043,-161.87 450.043,-161.87"/>
</g>
<!-- Story -->
<g id="node4" class="node"><title>Story</title>
<polyline fill="none" stroke="black" points="588.5,-1 729.5,-1 "/>
<path fill="none" stroke="black" d="M729.5,-1C735.5,-1 741.5,-7 741.5,-13"/>
<polyline fill="none" stroke="black" points="741.5,-13 741.5,-149 "/>
<path fill="none" stroke="black" d="M741.5,-149C741.5,-155 735.5,-161 729.5,-161"/>
<polyline fill="none" stroke="black" points="729.5,-161 588.5,-161 "/>
<path fill="none" stroke="black" d="M588.5,-161C582.5,-161 576.5,-155 576.5,-149"/>
<polyline fill="none" stroke="black" points="576.5,-149 576.5,-13 "/>
<path fill="none" stroke="black" d="M576.5,-13C576.5,-7 582.5,-1 588.5,-1"/>
<text text-anchor="middle" x="659" y="-144.4" font-family="Times Roman,serif" font-size="14.00">Story</text>
<polyline fill="none" stroke="black" points="576.5,-135 741.5,-135 "/>
<text text-anchor="start" x="584.5" y="-118.4" font-family="Times Roman,serif" font-size="14.00">description :text</text>
<text text-anchor="start" x="584.5" y="-100.4" font-family="Times Roman,serif" font-size="14.00">category :string</text>
<text text-anchor="start" x="584.5" y="-82.4" font-family="Times Roman,serif" font-size="14.00">priority :integer</text>
<text text-anchor="start" x="584.5" y="-64.4" font-family="Times Roman,serif" font-size="14.00">effort :integer</text>
<text text-anchor="start" x="584.5" y="-46.4" font-family="Times Roman,serif" font-size="14.00">status :string</text>
<text text-anchor="start" x="584.5" y="-28.4" font-family="Times Roman,serif" font-size="14.00">created_at :datetime</text>
<text text-anchor="start" x="584.5" y="-10.4" font-family="Times Roman,serif" font-size="14.00">updated_at :datetime</text>
</g>
<!-- User -->
<g id="node5" class="node"><title>User</title>
<polyline fill="none" stroke="black" points="539.5,-199 730.5,-199 "/>
<path fill="none" stroke="black" d="M730.5,-199C736.5,-199 742.5,-205 742.5,-211"/>
<polyline fill="none" stroke="black" points="742.5,-211 742.5,-383 "/>
<path fill="none" stroke="black" d="M742.5,-383C742.5,-389 736.5,-395 730.5,-395"/>
<polyline fill="none" stroke="black" points="730.5,-395 539.5,-395 "/>
<path fill="none" stroke="black" d="M539.5,-395C533.5,-395 527.5,-389 527.5,-383"/>
<polyline fill="none" stroke="black" points="527.5,-383 527.5,-211 "/>
<path fill="none" stroke="black" d="M527.5,-211C527.5,-205 533.5,-199 539.5,-199"/>
<text text-anchor="middle" x="635" y="-378.4" font-family="Times Roman,serif" font-size="14.00">User</text>
<polyline fill="none" stroke="black" points="527.5,-369 742.5,-369 "/>
<text text-anchor="start" x="535.5" y="-352.4" font-family="Times Roman,serif" font-size="14.00">email :string</text>
<text text-anchor="start" x="535.5" y="-334.4" font-family="Times Roman,serif" font-size="14.00">encrypted_password :string</text>
<text text-anchor="start" x="535.5" y="-316.4" font-family="Times Roman,serif" font-size="14.00">current_sign_in_at :datetime</text>
<text text-anchor="start" x="535.5" y="-298.4" font-family="Times Roman,serif" font-size="14.00">last_sign_in_at :datetime</text>
<text text-anchor="start" x="535.5" y="-280.4" font-family="Times Roman,serif" font-size="14.00">current_sign_in_ip :string</text>
<text text-anchor="start" x="535.5" y="-262.4" font-family="Times Roman,serif" font-size="14.00">last_sign_in_ip :string</text>
<text text-anchor="start" x="535.5" y="-244.4" font-family="Times Roman,serif" font-size="14.00">role :string</text>
<text text-anchor="start" x="535.5" y="-226.4" font-family="Times Roman,serif" font-size="14.00">created_at :datetime</text>
<text text-anchor="start" x="535.5" y="-208.4" font-family="Times Roman,serif" font-size="14.00">updated_at :datetime</text>
</g>
<!-- User&#45;&gt;Story -->
<g id="edge6" class="edge"><title>User&#45;&gt;Story</title>
<path fill="none" stroke="#48d1e4" d="M646.799,-190.81C647.526,-184.266 648.254,-177.713 648.973,-171.247"/>
<ellipse fill="none" stroke="#48d1e4" cx="646.353" cy="-194.821" rx="4.00001" ry="4.00001"/>
<polygon fill="#48d1e4" stroke="#48d1e4" points="648.988,-171.111 654.564,-161.669 649.54,-166.141 650.092,-161.172 650.092,-161.172 650.092,-161.172 649.54,-166.141 645.62,-160.675 648.988,-171.111 648.988,-171.111"/>
</g>
<!-- User&#45;&gt;Player -->
<g id="edge8" class="edge"><title>User&#45;&gt;Player</title>
<path fill="none" stroke="#21c012" d="M558.308,-192.155C550.488,-181.464 542.637,-170.732 535.064,-160.379"/>
<ellipse fill="none" stroke="#21c012" cx="560.804" cy="-195.568" rx="4.00002" ry="4.00002"/>
<polygon fill="#21c012" stroke="#21c012" points="534.959,-160.235 532.687,-149.507 532.007,-156.2 529.055,-152.164 529.055,-152.164 529.055,-152.164 532.007,-156.2 525.423,-154.821 534.959,-160.235 534.959,-160.235"/>
</g>
<!-- Category -->
<g id="node6" class="node"><title>Category</title>
<polyline fill="none" stroke="black" points="279.5,-579 420.5,-579 "/>
<path fill="none" stroke="black" d="M420.5,-579C426.5,-579 432.5,-585 432.5,-591"/>
<polyline fill="none" stroke="black" points="432.5,-591 432.5,-655 "/>
<path fill="none" stroke="black" d="M432.5,-655C432.5,-661 426.5,-667 420.5,-667"/>
<polyline fill="none" stroke="black" points="420.5,-667 279.5,-667 "/>
<path fill="none" stroke="black" d="M279.5,-667C273.5,-667 267.5,-661 267.5,-655"/>
<polyline fill="none" stroke="black" points="267.5,-655 267.5,-591 "/>
<path fill="none" stroke="black" d="M267.5,-591C267.5,-585 273.5,-579 279.5,-579"/>
<text text-anchor="middle" x="350" y="-650.4" font-family="Times Roman,serif" font-size="14.00">Category</text>
<polyline fill="none" stroke="black" points="267.5,-641 432.5,-641 "/>
<text text-anchor="start" x="275.5" y="-624.4" font-family="Times Roman,serif" font-size="14.00">name :string</text>
<text text-anchor="start" x="275.5" y="-606.4" font-family="Times Roman,serif" font-size="14.00">created_at :datetime</text>
<text text-anchor="start" x="275.5" y="-588.4" font-family="Times Roman,serif" font-size="14.00">updated_at :datetime</text>
</g>
<!-- Field -->
<g id="node8" class="node"><title>Field</title>
<polyline fill="none" stroke="black" points="279.5,-433 420.5,-433 "/>
<path fill="none" stroke="black" d="M420.5,-433C426.5,-433 432.5,-439 432.5,-445"/>
<polyline fill="none" stroke="black" points="432.5,-445 432.5,-527 "/>
<path fill="none" stroke="black" d="M432.5,-527C432.5,-533 426.5,-539 420.5,-539"/>
<polyline fill="none" stroke="black" points="420.5,-539 279.5,-539 "/>
<path fill="none" stroke="black" d="M279.5,-539C273.5,-539 267.5,-533 267.5,-527"/>
<polyline fill="none" stroke="black" points="267.5,-527 267.5,-445 "/>
<path fill="none" stroke="black" d="M267.5,-445C267.5,-439 273.5,-433 279.5,-433"/>
<text text-anchor="middle" x="350" y="-522.4" font-family="Times Roman,serif" font-size="14.00">Field</text>
<polyline fill="none" stroke="black" points="267.5,-513 432.5,-513 "/>
<text text-anchor="start" x="275.5" y="-496.4" font-family="Times Roman,serif" font-size="14.00">filename :string</text>
<text text-anchor="start" x="275.5" y="-478.4" font-family="Times Roman,serif" font-size="14.00">color :string</text>
<text text-anchor="start" x="275.5" y="-460.4" font-family="Times Roman,serif" font-size="14.00">created_at :datetime</text>
<text text-anchor="start" x="275.5" y="-442.4" font-family="Times Roman,serif" font-size="14.00">updated_at :datetime</text>
</g>
<!-- Category&#45;&gt;Field -->
<g id="edge10" class="edge"><title>Category&#45;&gt;Field</title>
<path fill="none" stroke="#d8c133" d="M350,-570.728C350,-563.772 350,-556.58 350,-549.46"/>
<ellipse fill="none" stroke="#d8c133" cx="350" cy="-574.898" rx="4" ry="4"/>
<polygon fill="#d8c133" stroke="#d8c133" points="350,-549.118 354.5,-539.118 350,-544.118 350,-539.118 350,-539.118 350,-539.118 350,-544.118 345.5,-539.118 350,-549.118 350,-549.118"/>
</g>
<!-- Field&#45;&gt;Map -->
<g id="edge14" class="edge"><title>Field&#45;&gt;Map</title>
<path fill="none" stroke="#3f9266" d="M367.779,-424.906C374.725,-401.035 382.622,-373.899 389.349,-350.783"/>
<ellipse fill="none" stroke="#3f9266" cx="366.585" cy="-429.009" rx="4.00001" ry="4.00001"/>
<polygon fill="#3f9266" stroke="#3f9266" points="389.36,-350.745 396.475,-342.401 390.757,-345.944 392.154,-341.143 392.154,-341.143 392.154,-341.143 390.757,-345.944 387.833,-339.886 389.36,-350.745 389.36,-350.745"/>
</g>
<!-- Field&#45;&gt;Terraforming -->
<g id="edge12" class="edge"><title>Field&#45;&gt;Terraforming</title>
<path fill="none" stroke="#d46ded" d="M322.604,-425.051C319.189,-415.485 316.148,-405.589 314,-396 294.828,-310.414 292.204,-208.687 292.929,-144.475"/>
<ellipse fill="none" stroke="#d46ded" cx="324.024" cy="-428.888" rx="4.00001" ry="4.00001"/>
<polygon fill="#d46ded" stroke="#d46ded" points="292.934,-144.108 297.578,-134.175 293.007,-139.109 293.079,-134.109 293.079,-134.109 293.079,-134.109 293.007,-139.109 288.579,-134.044 292.934,-144.108 292.934,-144.108"/>
</g>
</g>
</svg>
