<?xml version="1.0" encoding="UTF-8" standalone="no"?>
<!DOCTYPE svg PUBLIC "-//W3C//DTD SVG 1.1//EN"
 "http://www.w3.org/Graphics/SVG/1.1/DTD/svg11.dtd">
<!-- Generated by graphviz version 2.26.3 (20100126.1600)
 -->
<!-- Title: models_diagram Pages: 1 -->
<svg width="549pt" height="250pt"
 viewBox="0.00 0.00 549.00 250.00" xmlns="http://www.w3.org/2000/svg" xmlns:xlink="http://www.w3.org/1999/xlink">
<g id="graph1" class="graph" transform="scale(1 1) rotate(0) translate(4 246)">
<title>models_diagram</title>
<polygon fill="white" stroke="white" points="-4,5 -4,-246 546,-246 546,5 -4,5"/>
<!-- _diagram_info -->
<g id="node1" class="node"><title>_diagram_info</title>
<text text-anchor="start" x="8" y="-225.8" font-family="Times Roman,serif" font-size="13.00">Models diagram</text>
<text text-anchor="start" x="8" y="-208.8" font-family="Times Roman,serif" font-size="13.00">Date: Mar 19 2012 &#45; 21:01</text>
<text text-anchor="start" x="8" y="-191.8" font-family="Times Roman,serif" font-size="13.00">Migration version: 20120319175908</text>
<text text-anchor="start" x="8" y="-174.8" font-family="Times Roman,serif" font-size="13.00">Generated by RailRoady 1.0.7</text>
<text text-anchor="start" x="8" y="-157.8" font-family="Times Roman,serif" font-size="13.00">http://railroady.prestonlee.com</text>
</g>
<!-- Map -->
<g id="node2" class="node"><title>Map</title>
<ellipse fill="none" stroke="black" cx="332" cy="-93" rx="31.8198" ry="18.3848"/>
<text text-anchor="middle" x="332" y="-89.4" font-family="Times Roman,serif" font-size="14.00">Map</text>
</g>
<!-- Terraforming -->
<g id="node3" class="node"><title>Terraforming</title>
<ellipse fill="none" stroke="black" cx="272" cy="-19" rx="73.0388" ry="18.3848"/>
<text text-anchor="middle" x="272" y="-15.4" font-family="Times Roman,serif" font-size="14.00">Terraforming</text>
</g>
<!-- Map&#45;&gt;Terraforming -->
<g id="edge4" class="edge"><title>Map&#45;&gt;Terraforming</title>
<path fill="none" stroke="#3493c4" d="M313.291,-69.9261C306.898,-62.0408 299.703,-53.1673 293.132,-45.0631"/>
<ellipse fill="none" stroke="#3493c4" cx="315.866" cy="-73.1012" rx="4.00002" ry="4.00002"/>
<polygon fill="#3493c4" stroke="#3493c4" points="293.12,-45.0478 290.317,-34.4461 289.971,-41.1641 286.822,-37.2803 286.822,-37.2803 286.822,-37.2803 289.971,-41.1641 283.326,-40.1144 293.12,-45.0478 293.12,-45.0478"/>
</g>
<!-- Player -->
<g id="node6" class="node"><title>Player</title>
<ellipse fill="none" stroke="black" cx="405" cy="-19" rx="41.9273" ry="18.3848"/>
<text text-anchor="middle" x="405" y="-15.4" font-family="Times Roman,serif" font-size="14.00">Player</text>
</g>
<!-- Map&#45;&gt;Player -->
<g id="edge2" class="edge"><title>Map&#45;&gt;Player</title>
<path fill="none" stroke="#6d3cee" d="M354.029,-70.6697C362.481,-62.1015 372.169,-52.2811 380.813,-43.5185"/>
<ellipse fill="none" stroke="#6d3cee" cx="351.01" cy="-73.7294" rx="4.00002" ry="4.00002"/>
<polygon fill="#6d3cee" stroke="#6d3cee" points="381.06,-43.2676 391.287,-39.3088 384.572,-39.708 388.083,-36.1485 388.083,-36.1485 388.083,-36.1485 384.572,-39.708 384.88,-32.9883 381.06,-43.2676 381.06,-43.2676"/>
</g>
<!-- Story -->
<g id="node4" class="node"><title>Story</title>
<ellipse fill="none" stroke="black" cx="503" cy="-19" rx="38.1838" ry="18.3848"/>
<text text-anchor="middle" x="503" y="-15.4" font-family="Times Roman,serif" font-size="14.00">Story</text>
</g>
<!-- User -->
<g id="node5" class="node"><title>User</title>
<ellipse fill="none" stroke="black" cx="459" cy="-93" rx="33.9411" ry="18.3848"/>
<text text-anchor="middle" x="459" y="-89.4" font-family="Times Roman,serif" font-size="14.00">User</text>
</g>
<!-- User&#45;&gt;Story -->
<g id="edge6" class="edge"><title>User&#45;&gt;Story</title>
<path fill="none" stroke="#e0b237" d="M473.877,-67.9794C478.124,-60.837 482.768,-53.0269 487.075,-45.7836"/>
<ellipse fill="none" stroke="#e0b237" cx="471.695" cy="-71.6485" rx="4.00002" ry="4.00002"/>
<polygon fill="#e0b237" stroke="#e0b237" points="487.184,-45.6002 496.162,-39.3047 489.739,-41.3025 492.294,-37.0049 492.294,-37.0049 492.294,-37.0049 489.739,-41.3025 488.426,-34.705 487.184,-45.6002 487.184,-45.6002"/>
</g>
<!-- User&#45;&gt;Player -->
<g id="edge8" class="edge"><title>User&#45;&gt;Player</title>
<path fill="none" stroke="#646345" d="M441.37,-68.84C435.75,-61.139 429.512,-52.5907 423.812,-44.7794"/>
<ellipse fill="none" stroke="#646345" cx="443.845" cy="-72.2319" rx="4.00002" ry="4.00002"/>
<polygon fill="#646345" stroke="#646345" points="423.787,-44.7455 421.528,-34.0149 420.84,-40.7065 417.893,-36.6675 417.893,-36.6675 417.893,-36.6675 420.84,-40.7065 414.257,-39.3202 423.787,-44.7455 423.787,-44.7455"/>
</g>
<!-- Field -->
<g id="node7" class="node"><title>Field</title>
<ellipse fill="none" stroke="black" cx="302" cy="-195" rx="33.9411" ry="18.3848"/>
<text text-anchor="middle" x="302" y="-191.4" font-family="Times Roman,serif" font-size="14.00">Field</text>
</g>
<!-- Field&#45;&gt;Map -->
<g id="edge12" class="edge"><title>Field&#45;&gt;Map</title>
<path fill="none" stroke="#f44985" d="M309.809,-168.448C314.107,-153.835 319.437,-135.715 323.795,-120.895"/>
<ellipse fill="none" stroke="#f44985" cx="308.631" cy="-172.454" rx="4.00001" ry="4.00001"/>
<polygon fill="#f44985" stroke="#f44985" points="323.812,-120.84 330.951,-112.516 325.222,-116.043 326.633,-111.247 326.633,-111.247 326.633,-111.247 325.222,-116.043 322.316,-109.977 323.812,-120.84 323.812,-120.84"/>
</g>
<!-- Field&#45;&gt;Terraforming -->
<g id="edge10" class="edge"><title>Field&#45;&gt;Terraforming</title>
<path fill="none" stroke="#f24cc2" d="M297.463,-168.381C291.915,-135.832 282.562,-80.9614 276.867,-47.5551"/>
<ellipse fill="none" stroke="#f24cc2" cx="298.174" cy="-172.554" rx="4.00001" ry="4.00001"/>
<polygon fill="#f24cc2" stroke="#f24cc2" points="276.837,-47.3764 279.593,-36.7624 275.997,-42.4475 275.157,-37.5186 275.157,-37.5186 275.157,-37.5186 275.997,-42.4475 270.721,-38.2748 276.837,-47.3764 276.837,-47.3764"/>
</g>
</g>
</svg>
